
<svg width="18" height="18" viewBox="0 0 18 18" fill="none" xmlns="http://www.w3.org/2000/svg">
<g opacity="0.4">
<path fill-rule="evenodd" clip-rule="evenodd" d="M12.3082 2.07646L12.3089 2.63868C14.3749 2.8006 15.7396 4.2084 15.7418 6.36731L15.75 12.6866C15.7529 15.0405 14.2742 16.4887 11.9039 16.4925L6.11391 16.5C3.7584 16.503 2.26111 15.0202 2.25815 12.6597L2.25 6.41454C2.24704 4.24138 3.56364 2.83733 5.62963 2.64768L5.62889 2.08546C5.62815 1.75562 5.87251 1.5075 6.19833 1.5075C6.52415 1.50675 6.76851 1.75412 6.76925 2.08396L6.76999 2.6087L11.1685 2.6027L11.1678 2.07796C11.1671 1.74813 11.4114 1.50075 11.7372 1.5C12.0557 1.49925 12.3074 1.74663 12.3082 2.07646ZM3.39111 6.64617L14.6022 6.63118V6.36881C14.5704 4.75712 13.7618 3.91154 12.3104 3.78561L12.3111 4.36282C12.3111 4.68516 12.0601 4.94078 11.7417 4.94078C11.4159 4.94153 11.1708 4.68665 11.1708 4.36432L11.17 3.75712L6.77147 3.76312L6.77221 4.36956C6.77221 4.69265 6.52859 4.94752 6.20277 4.94752C5.87695 4.94827 5.63185 4.69415 5.63185 4.37106L5.63111 3.79385C4.18714 3.93853 3.38815 4.7871 3.39037 6.41304L3.39111 6.64617ZM11.4299 10.0532V10.0615C11.4373 10.4063 11.7187 10.6679 12.0601 10.6604C12.3933 10.6522 12.6592 10.3666 12.6517 10.0217C12.6362 9.6919 12.3689 9.42278 12.0364 9.42353C11.6958 9.43103 11.4292 9.70839 11.4299 10.0532ZM12.0416 13.419C11.701 13.4115 11.4262 13.1274 11.4255 12.7826C11.4181 12.4378 11.6913 12.1522 12.032 12.1439H12.0394C12.3874 12.1439 12.6695 12.428 12.6695 12.7804C12.6703 13.1327 12.3889 13.4183 12.0416 13.419ZM8.37909 10.0652C8.3939 10.41 8.67603 10.6792 9.01665 10.6642C9.34988 10.6484 9.61572 10.3636 9.60091 10.0187C9.59276 9.6814 9.31878 9.41903 8.98555 9.41978C8.64493 9.43478 8.37835 9.72038 8.37909 10.0652ZM9.01962 13.3853C8.67899 13.4003 8.3976 13.1312 8.38205 12.7863C8.38205 12.4415 8.64789 12.1567 8.98852 12.1409C9.32174 12.1402 9.59646 12.4025 9.60387 12.7391C9.61942 13.0847 9.35284 13.3696 9.01962 13.3853ZM5.32824 10.0914C5.34305 10.4363 5.62518 10.7061 5.96581 10.6904C6.29903 10.6754 6.56487 10.3898 6.54932 10.045C6.54192 9.70764 6.26793 9.44527 5.93397 9.44602C5.59334 9.46101 5.3275 9.74662 5.32824 10.0914ZM5.96877 13.389C5.62815 13.4048 5.34676 13.1349 5.33121 12.7901C5.33047 12.4453 5.59704 12.1597 5.93767 12.1447C6.2709 12.1439 6.54562 12.4063 6.55302 12.7436C6.56857 13.0884 6.30274 13.3741 5.96877 13.389Z" fill="#9FA2B4"/>
</g>
</svg>