<svg width="19" height="18" viewBox="0 0 19 18" fill="none" xmlns="http://www.w3.org/2000/svg">
<path fill-rule="evenodd" clip-rule="evenodd" d="M14 12.06C13.4089 12.06 12.88 12.285 12.4756 12.6375L6.93004 9.525C6.96893 9.3525 7.00004 9.18 7.00004 9C7.00004 8.82 6.96893 8.6475 6.93004 8.475L12.4134 5.3925C12.8334 5.7675 13.3856 6 14 6C15.2912 6 16.3334 4.995 16.3334 3.75C16.3334 2.505 15.2912 1.5 14 1.5C12.7089 1.5 11.6667 2.505 11.6667 3.75C11.6667 3.93 11.6978 4.1025 11.7367 4.275L6.25337 7.3575C5.83337 6.9825 5.28115 6.75 4.66671 6.75C3.3756 6.75 2.33337 7.755 2.33337 9C2.33337 10.245 3.3756 11.25 4.66671 11.25C5.28115 11.25 5.83337 11.0175 6.25337 10.6425L11.7912 13.7625C11.7523 13.92 11.7289 14.085 11.7289 14.25C11.7289 15.4575 12.7478 16.44 14 16.44C15.2523 16.44 16.2712 15.4575 16.2712 14.25C16.2712 13.0425 15.2523 12.06 14 12.06Z" fill="#C5C7CD"/>
</svg>
